HIERARCHY
ROOT hips
{
  OFFSET 0 10.680822821525009 1.3929502295107734
  CHANNELS 6 Xposition Yposition Zposition Yrotation Xrotation Zrotation
  JOINT spine
  {
    OFFSET -7.042017322922631e-31 0.6058489940359625 0
    CHANNELS 3 Yrotation Xrotation Zrotation
    JOINT chest
    {
      OFFSET 0 1.2699794144455032 0
      CHANNELS 3 Yrotation Xrotation Zrotation
      JOINT upperChest
      {
        OFFSET 0 1.217799211677689 0
        CHANNELS 3 Yrotation Xrotation Zrotation
        JOINT neck
        {
          OFFSET 0 1.5248826104153006 0
          CHANNELS 3 Yrotation Xrotation Zrotation
          JOINT head
          {
            OFFSET 0 0.8197772727844447 0
            CHANNELS 3 Yrotation Xrotation Zrotation
            JOINT leftEye
            {
              OFFSET 0.2793952361220866 0.6769952096623495 0.1830357412467788
              CHANNELS 3 Yrotation Xrotation Zrotation
              End Site
              {
                OFFSET 0.2793952361220866 0.6769952096623495 0.1830357412467788
              }
            }
            JOINT rightEye
            {
              OFFSET -0.27939522230689573 0.676995205357064 0.18303631459760622
              CHANNELS 3 Yrotation Xrotation Zrotation
              End Site
              {
                OFFSET -0.27939522230689573 0.676995205357064 0.18303631459760622
              }
            }
          }
        }
        JOINT leftShoulder
        {
          OFFSET 0.41486978509200423 1.1670505408695453 0
          CHANNELS 3 Yrotation Xrotation Zrotation
          JOINT leftUpperArm
          {
            OFFSET 0.9737926108153417 0 0
            CHANNELS 3 Yrotation Xrotation Zrotation
            JOINT leftLowerArm
            {
              OFFSET 2.5269332222665284 0 0
              CHANNELS 3 Yrotation Xrotation Zrotation
              JOINT leftHand
              {
                OFFSET 2.4263782738425914 0 0
                CHANNELS 3 Yrotation Xrotation Zrotation
                JOINT leftIndexProximal
                {
                  OFFSET 0.724320348022514 0.08170607082582437 0.20360061616140124
                  CHANNELS 3 Yrotation Xrotation Zrotation
                  JOINT leftIndexIntermediate
                  {
                    OFFSET 0.36548960630744587 -0.010566596513783999 -0.01414783573280308
                    CHANNELS 3 Yrotation Xrotation Zrotation
                    JOINT leftIndexDistal
                    {
                      OFFSET 0.22502819650693362 -0.007863819831430696 -0.007567681939621526
                      CHANNELS 3 Yrotation Xrotation Zrotation
                      End Site
                      {
                        OFFSET 0.22502819650693362 -0.007863819831430696 -0.007567681939621526
                      }
                    }
                  }
                }
                JOINT leftLittleProximal
                {
                  OFFSET 0.6720322998298205 0.08170601055037707 -0.3230036039466837
                  CHANNELS 3 Yrotation Xrotation Zrotation
                  JOINT leftLittleIntermediate
                  {
                    OFFSET 0.34583592281688713 5.476543019078406e-8 1.3869203337180114e-7
                    CHANNELS 3 Yrotation Xrotation Zrotation
                    JOINT leftLittleDistal
                    {
                      OFFSET 0.19925728062053938 0.003098047439490381 0.0038303983709246925
                      CHANNELS 3 Yrotation Xrotation Zrotation
                      End Site
                      {
                        OFFSET 0.19925728062053938 0.003098047439490381 0.0038303983709246925
                      }
                    }
                  }
                }
                JOINT leftMiddleProximal
                {
                  OFFSET 0.7300436596551069 0.0817073395107144 0.022661722987926763
                  CHANNELS 3 Yrotation Xrotation Zrotation
                  JOINT leftMiddleIntermediate
                  {
                    OFFSET 0.40758254347686607 -0.0000012383587111308714 2.408460318820138e-7
                    CHANNELS 3 Yrotation Xrotation Zrotation
                    JOINT leftMiddleDistal
                    {
                      OFFSET 0.2514490105498507 0.0000013869132886590307 9.738618134136345e-8
                      CHANNELS 3 Yrotation Xrotation Zrotation
                      End Site
                      {
                        OFFSET 0.2514490105498507 0.0000013869132886590307 9.738618134136345e-8
                      }
                    }
                  }
                }
                JOINT leftRingProximal
                {
                  OFFSET 0.7217261161191838 0.08170601902187746 -0.15043395722184966
                  CHANNELS 3 Yrotation Xrotation Zrotation
                  JOINT leftRingIntermediate
                  {
                    OFFSET 0.37808807487521556 0.0000013754022405443322 2.2046919317952884e-7
                    CHANNELS 3 Yrotation Xrotation Zrotation
                    JOINT leftRingDistal
                    {
                      OFFSET 0.21812105442344254 -0.002713483731960231 -0.004991354517454624
                      CHANNELS 3 Yrotation Xrotation Zrotation
                      End Site
                      {
                        OFFSET 0.21812105442344254 -0.002713483731960231 -0.004991354517454624
                      }
                    }
                  }
                }
                JOINT leftThumbProximal
                {
                  OFFSET 0.10793587079521427 -0.1652791240518252 -0.07775251827190094
                  CHANNELS 3 Yrotation Xrotation Zrotation
                  JOINT leftThumbIntermediate
                  {
                    OFFSET 0.40355819082296684 -0.017484006740276614 0.3177776014416309
                    CHANNELS 3 Yrotation Xrotation Zrotation
                    JOINT leftThumbDistal
                    {
                      OFFSET 0.2318764658022603 -0.018510186824293617 0.21396001800186287
                      CHANNELS 3 Yrotation Xrotation Zrotation
                      End Site
                      {
                        OFFSET 0.2318764658022603 -0.018510186824293617 0.21396001800186287
                      }
                    }
                  }
                }
              }
            }
          }
        }
        JOINT rightShoulder
        {
          OFFSET -0.4148697850920044 1.1670505408695453 0
          CHANNELS 3 Yrotation Xrotation Zrotation
          JOINT rightUpperArm
          {
            OFFSET -0.9737926108153414 0 0
            CHANNELS 3 Yrotation Xrotation Zrotation
            JOINT rightLowerArm
            {
              OFFSET -2.5269332222665293 0 0
              CHANNELS 3 Yrotation Xrotation Zrotation
              JOINT rightHand
              {
                OFFSET -2.42637827384259 0 0
                CHANNELS 3 Yrotation Xrotation Zrotation
                JOINT rightIndexProximal
                {
                  OFFSET -0.724320348022514 0.08170607082582437 0.20360061616140124
                  CHANNELS 3 Yrotation Xrotation Zrotation
                  JOINT rightIndexIntermediate
                  {
                    OFFSET -0.36548960630744587 -0.010566596513783999 -0.01414783573280308
                    CHANNELS 3 Yrotation Xrotation Zrotation
                    JOINT rightIndexDistal
                    {
                      OFFSET -0.22502819650693362 -0.007863819831430696 -0.007567681939621526
                      CHANNELS 3 Yrotation Xrotation Zrotation
                      End Site
                      {
                        OFFSET -0.22502819650693362 -0.007863819831430696 -0.007567681939621526
                      }
                    }
                  }
                }
                JOINT rightLittleProximal
                {
                  OFFSET -0.6720322998298205 0.08170601055037707 -0.3230036039466837
                  CHANNELS 3 Yrotation Xrotation Zrotation
                  JOINT rightLittleIntermediate
                  {
                    OFFSET -0.34583592281688713 5.476543019078406e-8 1.3869203337180114e-7
                    CHANNELS 3 Yrotation Xrotation Zrotation
                    JOINT rightLittleDistal
                    {
                      OFFSET -0.19925728062053938 0.003098047439490381 0.0038303983709246925
                      CHANNELS 3 Yrotation Xrotation Zrotation
                      End Site
                      {
                        OFFSET -0.19925728062053938 0.003098047439490381 0.0038303983709246925
                      }
                    }
                  }
                }
                JOINT rightMiddleProximal
                {
                  OFFSET -0.7300436596551069 0.0817073395107144 0.022661722987926763
                  CHANNELS 3 Yrotation Xrotation Zrotation
                  JOINT rightMiddleIntermediate
                  {
                    OFFSET -0.40758254347686607 -0.0000012383587111308714 2.408460318820138e-7
                    CHANNELS 3 Yrotation Xrotation Zrotation
                    JOINT rightMiddleDistal
                    {
                      OFFSET -0.2514490105498507 0.0000013869132886590307 9.738618134136345e-8
                      CHANNELS 3 Yrotation Xrotation Zrotation
                      End Site
                      {
                        OFFSET -0.2514490105498507 0.0000013869132886590307 9.738618134136345e-8
                      }
                    }
                  }
                }
                JOINT rightRingProximal
                {
                  OFFSET -0.7217261161191838 0.08170601902187746 -0.15043395722184966
                  CHANNELS 3 Yrotation Xrotation Zrotation
                  JOINT rightRingIntermediate
                  {
                    OFFSET -0.37808807487521556 0.0000013754022405443322 2.2046919317952884e-7
                    CHANNELS 3 Yrotation Xrotation Zrotation
                    JOINT rightRingDistal
                    {
                      OFFSET -0.21812105442344254 -0.002713483731960231 -0.004991354517454624
                      CHANNELS 3 Yrotation Xrotation Zrotation
                      End Site
                      {
                        OFFSET -0.21812105442344254 -0.002713483731960231 -0.004991354517454624
                      }
                    }
                  }
                }
                JOINT rightThumbProximal
                {
                  OFFSET -0.10793587079521427 -0.1652791240518252 -0.07775251827190094
                  CHANNELS 3 Yrotation Xrotation Zrotation
                  JOINT rightThumbIntermediate
                  {
                    OFFSET -0.40355819082296684 -0.017484006740276614 0.3177776014416309
                    CHANNELS 3 Yrotation Xrotation Zrotation
                    JOINT rightThumbDistal
                    {
                      OFFSET -0.2318764658022603 -0.018510186824293617 0.21396001800186287
                      CHANNELS 3 Yrotation Xrotation Zrotation
                      End Site
                      {
                        OFFSET -0.2318764658022603 -0.018510186824293617 0.21396001800186287
                      }
                    }
                  }
                }
              }
            }
          }
        }
      }
    }
  }
  JOINT leftUpperLeg
  {
    OFFSET 0.8486251390888677 -0.4421577294694363 0
    CHANNELS 3 Yrotation Xrotation Zrotation
    JOINT leftLowerLeg
    {
      OFFSET 0 -4.10147812638609 0
      CHANNELS 3 Yrotation Xrotation Zrotation
      JOINT leftFoot
      {
        OFFSET -0.0002543926476658853 -4.77292286812444 0.007402811231737388
        CHANNELS 3 Yrotation Xrotation Zrotation
        JOINT leftToes
        {
          OFFSET 0 -0.7027875951174846 1.2062924140498823
          CHANNELS 3 Yrotation Xrotation Zrotation
          End Site
          {
            OFFSET 0 -0.7027875951174846 1.2062924140498823
          }
        }
      }
    }
  }
  JOINT rightUpperLeg
  {
    OFFSET -0.8486251390888677 -0.4421577294694363 0
    CHANNELS 3 Yrotation Xrotation Zrotation
    JOINT rightLowerLeg
    {
      OFFSET 0 -4.10147812638609 0
      CHANNELS 3 Yrotation Xrotation Zrotation
      JOINT rightFoot
      {
        OFFSET 0.0002543926476658853 -4.77292286812444 0.007402811231737388
        CHANNELS 3 Yrotation Xrotation Zrotation
        JOINT rightToes
        {
          OFFSET 0 -0.7027875951174846 1.2062924140498823
          CHANNELS 3 Yrotation Xrotation Zrotation
          End Site
          {
            OFFSET 0 -0.7027875951174846 1.2062924140498823
          }
        }
      }
    }
  }
}
MOTION
Frames: 4
Frame Time: 0.03333333333333333
0.014768417924642563 -0.09187361803379801 0.008949954062700272 -5.277881556225752 -3.735654003959192 -3.3484114898306587 1.5757935217858234 3.291925349827686 2.799732354774217 0.7561214597828771 2.2585320565771485 3.1175533491823084 0 0 0 -0.07151917358630432 5.622619370785941 0.4578473330932605 1.3855358162049922 -7.54875064215031 -0.2841594322317617 0 0 0 0 0 0 -17.584022267231283 1.0190923434792678 -10.730239502374207 -20.77966560407688 2.732079746632407 -64.0635393506773 -1.4382329625274464 -0.21214457286418015 0.021195158056457827 2.704415489435411 -32.88177542838593 -6.381441603907644 -1.011951537075238 -0.5813806843629722 -7.558847647693008 1.5435129549916804 0.23637676239516278 -17.390643942962416 0.7098852716970819 0.05038128940939592 -8.047904519215905 5.392979041000253 1.0219790899205201 -27.112275112760507 1.50062658964298 0.2978745360095323 -17.418527875517555 1.4412526654623317 0.26904304724993333 -16.518585472525693 2.5240958979474706 -0.28856030383836734 -15.73168277759281 1.5367418972818354 0.23467426999943733 -17.41923835955756 1.622414126887413 0.2631665399020121 -18.426973324740572 3.433722574934998 -0.028028852980800083 -21.169939601803094 1.830353400576826 0.3382521424334278 -20.923322127244997 1.5736625968906304 0.24781412300043185 -17.881519608861385 2.0084560079625455 0.6844125435829378 4.721122244010234 24.151610591278313 12.66928544458259 21.67350570647162 3.9838596347205475 -13.456750939026849 8.2817369372071 15.512938746194092 1.154111394900555 13.148288276265834 29.046297115156303 10.594501688680442 57.81871179152825 6.6188250978330565 -0.9701610714213446 -0.14167750748083807 -2.747759488545954 -19.684537254788065 7.293611192724957 1.2836598666533483 -0.5614619549145081 6.793196858369821 -1.146209108188649 0.17692694011955779 17.424747962601003 -0.5606703269637233 0.03876807998095831 8.066570269893525 -4.466577287301924 0.7186287536173447 26.472799421115983 -1.0867473439603401 0.13362981073117675 17.44733740640298 -1.1783420643366675 0.13411559592171068 16.545239481802785 -2.134041196340716 -0.3289128743857183 15.029020494859742 -1.0810819040215096 0.16861197408863798 17.44869622238585 -1.2794691367202797 0.20093278449898647 18.459857970879998 -2.8569156864086387 -0.13910550352258697 20.498346195007134 -1.4286048772575748 0.2623705476883923 20.960970005113644 -1.2185423572196024 0.1964305421880952 17.909415807137755 -0.1235589932701756 -0.2687163151499269 -4.13725880054561 -28.584287077263987 13.323403628470313 -22.000657544234357 -4.541059049719633 -15.875665086124686 -11.727326438247058 15.122671669285552 -10.412437642834758 7.352866202723518 2.1335977666502766 12.160908452760498 4.588356334600799 0.42450791138618893 1.2655449632844946 -7.106758116405759 0.00001689439969813511 -4.933141915043422 0.000002807508145606872 -10.339247161774495 0.6042847621234229 3.523102375173585 -9.873695695991568 7.315428756226053 -4.419514952540753 -1.6105754775835028 -3.6925986948230434 3.3342157838867035 0.0000367228187261795 -7.273477156329588 -0.000005620459549631116
0.023757804185152054 -0.16350218859043864 -0.006522767711430788 -5.28350232132393 -3.6704984065614714 -3.0594259025325887 1.5573230292852127 4.08222201858335 2.678842146375871 0.713320696471809 1.5950905318722206 2.94571794797204 0 0 0 0.01691569301774286 5.728469612610266 0.4088724707371581 1.616879572594218 -7.220394920275928 -0.318542745185345 0 0 0 0 0 0 -16.060923306579397 0.9766525021979524 -10.77578236060128 -20.60588827317804 2.8113931300702304 -63.52177671866193 -3.443819208517965 -0.5069023784233911 0.05970597920941905 1.177903874660345 -30.40990010448415 -4.902225131220419 -1.0885256016031215 -0.6014698746681019 -7.584806916151014 1.5654046929570757 0.24333345106751741 -17.64734233288443 0.7283830922772647 0.053023249677910646 -8.256899299772215 5.501558024246196 1.09921487359861 -27.129832077166427 1.5216532287289697 0.30548176465111754 -17.66824504008522 1.457161049071876 0.2744861555996034 -16.70628921271146 2.527363492498227 -0.28847276424933616 -15.765850254926551 1.5580543161339744 0.24141836628276125 -17.669014895405784 1.638337720230277 0.2685062311634074 -18.614680853347426 3.48728384107888 0.0012984987316368337 -21.19955477596587 1.8511121614880732 0.34625470559993154 -21.171953827830418 1.5896643906192114 0.2530018079428598 -18.069551650149116 1.9463645422955986 0.7299115801222635 4.565397988179885 24.134207854195267 12.647963264858896 21.79140985460099 4.083802272635498 -13.446549371484588 8.307938588230156 14.16293870431556 1.1410908695171023 13.039042728371228 28.90886059244394 10.543706103995419 57.53894861349616 8.191165307479833 -1.1976467982663834 -0.19170820475347491 -0.7031384192341678 -18.508523300943043 6.249921118513554 1.4166732558155906 -0.6003591607890798 7.00973406147848 -1.1443546427007139 0.1763551892038883 17.396396892775225 -0.5662518207100967 0.03956529130941741 8.148751296759235 -4.696344627566516 0.8774059756093806 26.659244838031842 -1.084871287841121 0.1331127159852985 17.419004921649947 -1.1837670243192862 0.13558450420829296 16.627423805594653 -2.149623097304437 -0.32940116092767474 15.236487127613785 -1.0792480348709501 0.1680410638598038 17.420472277064555 -1.2848063197123805 0.20273171007332375 18.542029612148564 -2.9742295911751557 -0.07985721024869154 20.698793520820622 -1.4267984964008578 0.26168327939667396 20.93270178051371 -1.2238741546787193 0.19817000958395437 17.991590807236182 -0.10270080464191991 -0.25233729878034533 -4.024345336321047 -28.584296460889263 13.323399241526758 -22.000666993942826 -4.66657682007089 -15.833388150638761 -11.723100827536278 14.806784970931332 -12.904418262859602 7.071113675147207 2.1768275683569485 16.951900310344143 4.722533691419138 0.6204392573550622 -0.9870775419347774 -7.137556484311358 0.000004745672176094005 -4.9384614412027 -8.727388865426193e-7 -10.724437718144408 -3.0979623017636815 3.278160751684102 -9.278524982615496 14.236313460192617 -5.561388381853131 -2.383531492461616 -6.98988330440773 4.053301728843866 0.000007519554843526083 -7.583217886024131 -0.0000019294040817377797
0.04479270055890083 -0.2998804768594816 -0.05660942569375038 -5.3955407715062815 -3.493847874686947 -2.5344592577447367 1.474079310702073 6.160830807817835 2.4506371819008557 0.6226248255093457 0.19687628135798194 2.5428929391653057 0 0 0 0.21242360346352224 5.9408413574450165 0.33888101798300696 2.190722087201202 -6.608719308623977 -0.4438889556358323 0 0 0 0 0 0 -12.686660118677521 0.8949994991230181 -10.830738314406128 -20.22739914848185 1.513297947892119 -62.24746238821005 -4.832058072614232 -0.7100333597443483 0.0923936402930867 -3.5571041452495296 -23.14237117331741 -1.7157151167279732 -1.5424196547009434 -0.7176380849302645 -7.765823061360871 1.6957266024644242 0.28692426613790756 -19.183235858019057 0.8388856295598699 0.07028230399917323 -9.507197993353149 6.148895691243224 1.5629999350445845 -27.259253777747094 1.6467750190054917 0.35293085954210957 -19.162372307880602 1.5519290839430975 0.3080902672962643 -17.829268736122216 2.5494203004138236 -0.2877250091648449 -15.996365129733093 1.6849269324971106 0.28363204746868326 -19.163410777046245 1.7332415717910927 0.30153698157334996 -19.737725551941256 3.8079254043392323 0.1780076759975702 -21.402338479954135 1.9746324769532244 0.3959522860341005 -22.659834596511796 1.6850270770511828 0.2851662709309335 -19.19438839105165 1.5730279047111673 1.0004264864383456 3.6333152121232066 24.028280778376526 12.521138809324933 22.496338070488395 4.6808352330791 -13.385613234556514 8.46640677698984 11.233913621120708 1.0934674979325267 12.743461044366832 29.24705987897159 7.890331274974199 57.07762146247517 7.096941665676425 -1.0395043492280565 -0.15624919217700978 5.34028856143512 -14.920312469677643 3.6470676370079858 2.1796698637507523 -0.8480753120411931 8.29886588050633 -1.1367328852780445 0.17399287986523307 17.279830400412376 -0.5994846421355184 0.04444545611426197 8.639400300949037 -6.008718194742281 1.8328119746665243 27.76324329470255 -1.0771509452443162 0.13103753358324832 17.302453536936092 -1.2161838169606378 0.14452714286849308 17.118000875022712 -2.2430839803079192 -0.33101209846872764 16.47516755705199 -1.0716314604638948 0.16575278069711452 17.304490534768387 -1.3166272267565486 0.21352802922158565 19.032614463481295 -3.648672886265492 0.28119777582975913 21.894028850000456 -1.419355904731782 0.25881827896912374 20.816425632787446 -1.2557362931160019 0.20886934164914292 18.482151496303924 0.022226580807071412 -0.15335794030086514 -3.3508820986285417 -28.584271391802996 13.323403628470313 -22.00064027181133 -5.415327733618957 -15.580955399009946 -11.699889871258533 14.048617789001874 -16.88083776155452 6.515513911964415 2.953629663618245 24.18258806453899 5.252294380729377 0.7507841808952744 -4.157072377545123 -7.277027488038378 0.000017972650288890116 -4.950542044442765 -6.535460391893932e-7 -11.035477447749885 -8.205165484275165 2.9519481280970035 -8.041102193557345 23.19442489921158 -6.795070953746337 -3.948031062927297 -10.878380478283379 5.012678797450755 0.000011003341474009111 -7.480365155397551 -0.000006239890875144607
0.06820899993181229 -0.44751784410801676 -0.14047649502754211 -5.669022443241675 -3.0667371003198083 -1.8313780824408579 1.3160881342742297 8.660297439265662 2.008225242538149 0.5343914704351815 -1.1405899252517917 2.1008071207361834 0 0 0 0.42646658267388615 6.130346652954716 0.28794361799224333 2.8701385902046423 -6.122393151560076 -0.6412623303127932 0 0 0 0 0 0 -9.14748821312317 0.8254452289593676 -10.77590637485503 -19.3691350939211 0.049640320323888106 -60.6743518836691 -6.572462799749133 -0.9634396352972505 0.14030003969854465 -8.230239753254375 -12.961787234591085 0.9023856244100434 -2.333074692953609 -0.9172426573962049 -8.142321060945426 1.9227922198409249 0.3723437133012462 -21.894473618478028 1.0329359987438587 0.10662178242104024 -11.714394801469517 7.283002461921632 2.3906758581690286 -27.537828642764964 1.864498308453278 0.4445547397309946 -21.799837021575822 1.717587374523106 0.3719329061102373 -19.811653798477515 2.594072535402762 -0.28593048787634995 -16.462724127762986 1.906059755689934 0.36617840571760374 -21.801454196048557 1.8991355443664284 0.364354521383183 -21.720225545221766 4.372749304715525 0.4956608975362282 -21.81722493823274 2.1894757674950345 0.4915341362018708 -25.287306833201402 1.8517602979247543 0.34650171750176406 -21.179806681781386 0.9032596118085171 1.4712100279075913 1.9868786851358953 23.83482280374218 12.300236615978758 23.739542596267604 5.731340749533493 -13.278966211620908 8.75236090662939 8.220089824950167 1.0151603097252115 12.32238506871285 29.660713754679726 3.7425838950905543 56.41270823271859 4.2880239015626636 -0.6305186941461596 -0.07900249733252275 11.877066900182216 -9.418079602629055 0.9541767104524526 3.441255678528564 -1.3465605349187575 10.555804302085413 -1.1311121241574882 0.1722729049816959 17.19403917687169 -0.6578914555508112 0.05377651181479476 9.503031824021942 -8.152696435185936 3.570368411737893 29.665422461878943 -1.071499387337961 0.12954289222930954 17.21661833398689 -1.2730104876149648 0.16091445246336522 17.981549998139613 -2.408790136139477 -0.32830735214854345 18.6554723743534 -1.066090118963059 0.16409183722876639 17.21964960307102 -1.3724008454089025 0.23318303517548747 19.896168739206615 -4.763623111812097 0.9547663210481253 23.99011390043254 -1.4139035850392534 0.25672934051981183 20.7310887559052 -1.3115891712510281 0.2283390310633285 19.345666809516253 0.2442220204967762 0.024218569190057906 -2.1672873933025985 -28.584273070952523 13.323421176245326 -22.00062562886444 -6.730831716479554 -15.135943342581996 -11.667333735634122 13.029812062981106 -20.5892018065171 5.739095705036538 4.6534498716918025 30.058880782283758 6.353771449659807 0.7604191686290228 -6.428127836516807 -7.944652942892143 0.000006265074889856148 -4.858024794742804 -2.9635491523471346e-8 -10.86242261534171 -13.063447528532635 2.588298426018587 -6.920203132519485 30.62087276673568 -7.535179985288355 -5.573191688810409 -13.67310754721108 5.754787901536764 0.000029126705150559504 -7.634878708018036 -0.0000032033884891940927
